<?xml version="1.0" encoding="UTF-8"?>
<svg width="50px" height="50px" viewBox="0 0 50 50" version="1.1" xmlns="http://www.w3.org/2000/svg" xmlns:xlink="http://www.w3.org/1999/xlink">
    <!-- Generator: Sketch 51 (57462) - http://www.bohemiancoding.com/sketch -->
    <title>icon/buildersrisk</title>
    <desc>Created with Sketch.</desc>
    <defs></defs>
    <g id="Page-1" stroke="none" stroke-width="1" fill="none" fill-rule="evenodd">
        <g id="BENCH-Home-01" transform="translate(-447.000000, -2950.000000)">
            <rect fill="#FFFFFF" x="0" y="0" width="1440" height="6195"></rect>
            <g id="icon/buildersrisk" transform="translate(448.000000, 2951.000000)" stroke="#283591" stroke-linecap="round" stroke-linejoin="round">
                <g id="Group-7">
                    <path d="M0.9345,5.6402 C-0.3425,4.3182 -0.3065,2.2112 1.0165,0.9342 C2.3055,-0.3118 4.3505,-0.3118 5.6405,0.9342 L16.2295,11.5242 C17.5525,12.8012 17.5885,14.9082 16.3115,16.2302 C15.0355,17.5522 12.9285,17.5892 11.6055,16.3122 C11.5785,16.2852 11.5515,16.2582 11.5245,16.2302 L0.9345,5.6402 Z" id="Stroke-1" stroke-width="2"></path>
                    <path d="M16.2299,16.2301 L29.1739,29.1741" id="Stroke-3" stroke-width="2"></path>
                    <path d="M23.2899,23.2901 L32.0389,14.5441 C33.3379,13.2441 35.4449,13.2441 36.7449,14.5431 C37.1789,14.9771 37.4839,15.5211 37.6269,16.1171 L47.9999,48.0001 L16.1169,37.6271 C14.3299,37.1971 13.2309,35.3991 13.6619,33.6121 C13.8049,33.0161 14.1109,32.4721 14.5439,32.0391 L18.5839,27.9981" id="Stroke-5" stroke-width="2"></path>
                </g>
            </g>
        </g>
    </g>
</svg>