<?xml version="1.0" encoding="UTF-8"?>
<svg width="50px" height="50px" viewBox="0 0 50 50" version="1.1" xmlns="http://www.w3.org/2000/svg" xmlns:xlink="http://www.w3.org/1999/xlink">
    <!-- Generator: Sketch 51 (57462) - http://www.bohemiancoding.com/sketch -->
    <title>icon/life</title>
    <desc>Created with Sketch.</desc>
    <defs></defs>
    <g id="Page-1" stroke="none" stroke-width="1" fill="none" fill-rule="evenodd">
        <g id="BENCH-Home-01" transform="translate(-1193.000000, -2950.000000)">
            <rect fill="#FFFFFF" x="0" y="0" width="1440" height="6195"></rect>
            <g id="icon/life/bluemain" transform="translate(1194.000000, 2951.000000)" stroke="#283591" stroke-linecap="round" stroke-linejoin="round">
                <g id="Group-11">
                    <path d="M11.1998,0.0001 C14.7348,0.0001 17.5998,2.8651 17.5998,6.4001 C17.5998,9.9351 14.7348,12.8001 11.1998,12.8001 C7.6648,12.8001 4.7998,9.9351 4.7998,6.4001 C4.7998,2.8651 7.6648,0.0001 11.1998,0.0001 Z" id="Stroke-1" stroke-width="2"></path>
                    <path d="M21.3179,22.3888 C18.6609,16.8018 11.9779,14.4268 6.3909,17.0838 C2.4869,18.9408 -0.0001,22.8768 -0.0001,27.1998 L-0.0001,31.9998 L4.7999,31.9998 L6.3999,47.9988 L15.9999,47.9988 L17.1129,36.8718" id="Stroke-3" stroke-width="2"></path>
                    <path d="M35.1993,47.9991 L24.2923,36.6181 C22.3273,34.6541 21.8403,31.6531 23.0823,29.1681 C24.6753,25.9801 28.5513,24.6871 31.7393,26.2801 C32.3603,26.5901 32.9273,26.9991 33.4183,27.4901 L35.1993,29.2711 L36.9833,27.4901 C39.5033,24.9701 43.5893,24.9701 46.1093,27.4901 C46.6003,27.9801 47.0083,28.5471 47.3183,29.1681 C48.5603,31.6531 48.0743,34.6541 46.1093,36.6181 L35.1993,47.9991 Z" id="Stroke-5" stroke-width="2"></path>
                    <path d="M33.5992,0.0001 C36.6922,0.0001 39.1992,2.5071 39.1992,5.6001 C39.1992,8.6921 36.6922,11.2001 33.5992,11.2001 C30.5072,11.2001 27.9992,8.6921 27.9992,5.6001 C27.9992,2.5071 30.5072,0.0001 33.5992,0.0001 Z" id="Stroke-7" stroke-width="2"></path>
                    <path d="M41.9195,17.5997 C39.2675,13.0087 33.3955,11.4377 28.8045,14.0897 C27.8915,14.6167 27.0715,15.2907 26.3775,16.0847" id="Stroke-9" stroke-width="2"></path>
                </g>
            </g>
        </g>
    </g>
</svg>