<?xml version="1.0" encoding="UTF-8"?>
<svg width="49px" height="37px" viewBox="0 0 49 37" version="1.1" xmlns="http://www.w3.org/2000/svg" xmlns:xlink="http://www.w3.org/1999/xlink">
    <!-- Generator: Sketch 51 (57462) - http://www.bohemiancoding.com/sketch -->
    <title>icon/auto</title>
    <desc>Created with Sketch.</desc>
    <defs></defs>
    <g id="Page-1" stroke="none" stroke-width="1" fill="none" fill-rule="evenodd">
        <g id="BENCH-Home-01" transform="translate(-451.000000, -2645.000000)">
            <rect fill="#FFFFFF" x="0" y="0" width="1440" height="6195"></rect>
            <g id="icon/auto" transform="translate(451.000000, 2646.000000)" stroke="#283591" stroke-linecap="round" stroke-linejoin="round">
                <g id="Group-11">
                    <path d="M10.3804408,24.8799444 C12.9763592,24.8799444 15.0805224,26.9682778 15.0805224,29.5446667 C15.0805224,32.1210556 12.9763592,34.2103611 10.3804408,34.2103611 C7.78452245,34.2103611 5.68035918,32.1210556 5.68035918,29.5446667 C5.68035918,26.9682778 7.78452245,24.8799444 10.3804408,24.8799444 Z" id="Stroke-1" stroke-width="2"></path>
                    <path d="M38.5824,24.8799444 C41.1783184,24.8799444 43.2824816,26.9682778 43.2824816,29.5446667 C43.2824816,32.1210556 41.1783184,34.2103611 38.5824,34.2103611 C35.9864816,34.2103611 33.8823184,32.1210556 33.8823184,29.5446667 C33.8823184,26.9682778 35.9864816,24.8799444 38.5824,24.8799444 Z" id="Stroke-3" stroke-width="2"></path>
                    <path d="M0.979591837,12.4399722 L25.1079184,12.4399722 C25.7270204,12.4399722 26.3314286,12.2581667 26.8466939,11.9169167 L29.9676735,9.84413889 C30.4819592,9.50288889 31.0863673,9.32108333 31.7054694,9.32108333 L44.8662857,9.32108333 C46.5972245,9.32108333 48,10.7142778 48,12.4321944 L48,23.3171944 C45.7812245,20.3723333 42.2870204,18.6446944 38.5822041,18.66025 C34.9929796,18.6583056 31.6310204,20.4005278 29.5807347,23.3249722 L19.3822041,23.3249722 C17.3319184,20.4005278 13.9699592,18.6583056 10.3807347,18.66025 C6.67983673,18.6515 3.19346939,20.3820556 0.979591837,23.3249722 L0.979591837,12.4399722 Z" id="Stroke-5" stroke-width="2"></path>
                    <path d="M35.4489796,9.330125 L32.9647347,2.25623611 C32.5807347,0.921375 31.3513469,0.000680555556 29.9524898,-0.000291666667 L9.06171429,-0.000291666667 C7.93910204,0.00165277778 6.90269388,0.599569444 6.34628571,1.56790278 L0.979102041,12.4402639" id="Stroke-7" stroke-width="2"></path>
                    <path d="M13.5138612,0 L13.5138612,12.4395833" id="Stroke-9" stroke-width="2"></path>
                </g>
            </g>
        </g>
    </g>
</svg>