<?xml version="1.0" encoding="UTF-8"?>
<svg width="50px" height="29px" viewBox="0 0 50 29" version="1.1" xmlns="http://www.w3.org/2000/svg" xmlns:xlink="http://www.w3.org/1999/xlink">
    <!-- Generator: Sketch 51 (57462) - http://www.bohemiancoding.com/sketch -->
    <title>icon/classiccar</title>
    <desc>Created with Sketch.</desc>
    <defs></defs>
    <g id="Page-1" stroke="none" stroke-width="1" fill="none" fill-rule="evenodd">
        <g id="BENCH-Home-01" transform="translate(-195.000000, -2960.000000)">
            <rect fill="#FFFFFF" x="0" y="0" width="1440" height="6195"></rect>
            <g id="icon/classiccar" transform="translate(196.000000, 2961.000000)" stroke="#283591" stroke-linecap="round" stroke-linejoin="round">
                <g id="Group-15">
                    <path d="M38.3999,20.2665 C40.1679,20.2665 41.5999,21.6995 41.5999,23.4665 C41.5999,25.2335 40.1679,26.6665 38.3999,26.6665 C36.6329,26.6665 35.1999,25.2335 35.1999,23.4665 C35.1999,21.6995 36.6329,20.2665 38.3999,20.2665 Z" id="Stroke-1" stroke-width="2"></path>
                    <path d="M12.7998,20.2665 C14.5678,20.2665 15.9998,21.6995 15.9998,23.4665 C15.9998,25.2335 14.5678,26.6665 12.7998,26.6665 C11.0328,26.6665 9.5998,25.2335 9.5998,23.4665 C9.5998,21.6995 11.0328,20.2665 12.7998,20.2665 Z" id="Stroke-3" stroke-width="2"></path>
                    <path d="M21.6318002,23.4667 C21.6328,18.5907 17.6808,14.6357 12.8038,14.6347 L12.7998,14.6347 C7.9208,14.6347 -0.0002,18.5877 -0.0002,23.4667" id="Stroke-5" stroke-width="2"></path>
                    <path d="M47.1699,22.4149 C46.6379,17.9759 42.8719,14.6339 38.3999,14.6349 C30.4359,14.6349 21.8669,23.0909 21.8669,23.0909" id="Stroke-7" stroke-width="2"></path>
                    <path d="M35.2002,23.4667 L16.0002,23.4667" id="Stroke-9" stroke-width="2"></path>
                    <path d="M41.6001,23.4667 L44.8001,23.4667 C46.5671,23.4667 48.0001,22.0337 48.0001,20.2667 L44.8531,10.6667 C44.1751,9.1127 42.6411,8.1077 40.9451,8.1067 L26.1331,8.1067 L24.0001,-0.0003 L12.8001,-0.0003 C5.7311,-0.0003 0.0001,5.7307 0.0001,12.7997 L0.0001,23.4667 L9.6001,23.4667" id="Stroke-11" stroke-width="2"></path>
                    <polyline id="Stroke-13" stroke-width="2" points="14.8418 -0.0001 16.5328 8.1069 26.1338 8.1069"></polyline>
                </g>
            </g>
        </g>
    </g>
</svg>