<?xml version="1.0" encoding="UTF-8"?>
<svg width="50px" height="50px" viewBox="0 0 50 50" version="1.1" xmlns="http://www.w3.org/2000/svg" xmlns:xlink="http://www.w3.org/1999/xlink">
    <!-- Generator: Sketch 51 (57462) - http://www.bohemiancoding.com/sketch -->
    <title>icon/condo</title>
    <desc>Created with Sketch.</desc>
    <defs></defs>
    <g id="Page-1" stroke="none" stroke-width="1" fill="none" fill-rule="evenodd">
        <g id="BENCH-Home-01" transform="translate(-944.000000, -2639.000000)">
            <rect fill="#FFFFFF" x="0" y="0" width="1440" height="6195"></rect>
            <g id="icon/condo/blue" transform="translate(945.000000, 2640.000000)" stroke-linecap="round" stroke-linejoin="round">
                <g id="Group-37">
                    <path d="M12.8002,-0.0001 C10.5442,-0.0031 8.5902,1.5659 8.1072,3.7699 C7.6062,3.4159 7.0122,3.2179 6.4002,3.1999 C4.6332,3.1999 3.2002,4.6329 3.2002,6.3999 C3.2002,8.1669 4.6332,9.5999 6.4002,9.5999 L12.8002,9.5999 C15.4512,9.5999 17.6002,7.4509 17.6002,4.7999 C17.6002,2.1489 15.4512,-0.0001 12.8002,-0.0001 Z" id="Stroke-1" stroke="#03105C" stroke-width="2"></path>
                    <path d="M27.7333,-0.0001 L45.8663,-0.0001 C47.0453,-0.0001 48.0003,0.9549 48.0003,2.1329 L48.0003,46.9339 C48.0003,47.5219 47.5223,47.9999 46.9333,47.9999 L26.6673,47.9999 C26.0773,47.9999 25.6003,47.5219 25.6003,46.9339 L25.6003,2.1329 C25.6003,0.9549 26.5553,-0.0001 27.7333,-0.0001 Z" id="Stroke-3" stroke="#283591" stroke-width="2"></path>
                    <path d="M31.9999,6.3998 L31.9999,7.9998" id="Stroke-5" stroke="#283591" stroke-width="2"></path>
                    <path d="M41.6,6.3998 L41.6,7.9998" id="Stroke-7" stroke="#283591" stroke-width="2"></path>
                    <path d="M31.9999,14.3998 L31.9999,15.9998" id="Stroke-9" stroke="#283591" stroke-width="2"></path>
                    <path d="M41.6,14.3998 L41.6,15.9998" id="Stroke-11" stroke="#283591" stroke-width="2"></path>
                    <path d="M31.9999,22.3998 L31.9999,23.9998" id="Stroke-13" stroke="#283591" stroke-width="2"></path>
                    <path d="M41.6,22.3998 L41.6,23.9998" id="Stroke-15" stroke="#283591" stroke-width="2"></path>
                    <path d="M31.9999,30.3998 L31.9999,31.9998" id="Stroke-17" stroke="#283591" stroke-width="2"></path>
                    <path d="M41.6,30.3998 L41.6,31.9998" id="Stroke-19" stroke="#283591" stroke-width="2"></path>
                    <path d="M31.9999,38.3998 L31.9999,39.9998" id="Stroke-21" stroke="#283591" stroke-width="2"></path>
                    <path d="M41.6,38.3998 L41.6,39.9998" id="Stroke-23" stroke="#283591" stroke-width="2"></path>
                    <path d="M-0.0001,25.6 L19.1999,25.6 L19.1999,46.933 C19.1999,47.522 18.7229,48 18.1329,48 L1.0669,48 C0.4779,48 -0.0001,47.522 -0.0001,46.933 L-0.0001,25.6 Z" id="Stroke-25" stroke="#283591" stroke-width="2"></path>
                    <path d="M2.1332,19.2001 L17.0672,19.2001 C18.2452,19.2001 19.2002,20.1551 19.2002,21.3331 L19.2002,25.6001 L0.0002,25.6001 L0.0002,21.3331 C0.0002,20.1551 0.9552,19.2001 2.1332,19.2001 Z" id="Stroke-27" stroke="#283591" stroke-width="2"></path>
                    <path d="M6.3998,31.9999 L6.3998,33.5999" id="Stroke-29" stroke="#283591" stroke-width="2"></path>
                    <path d="M12.8002,31.9999 L12.8002,33.5999" id="Stroke-31" stroke="#283591" stroke-width="2"></path>
                    <path d="M6.3998,39.9999 L6.3998,41.5999" id="Stroke-33" stroke="#283591" stroke-width="2"></path>
                    <path d="M12.8002,39.9999 L12.8002,41.5999" id="Stroke-35" stroke="#283591" stroke-width="2"></path>
                </g>
            </g>
        </g>
    </g>
</svg>