<?xml version="1.0" encoding="UTF-8"?>
<svg width="45px" height="48px" viewBox="0 0 45 48" version="1.1" xmlns="http://www.w3.org/2000/svg" xmlns:xlink="http://www.w3.org/1999/xlink">
    <!-- Generator: Sketch 51 (57462) - http://www.bohemiancoding.com/sketch -->
    <title>icon/health/purple</title>
    <desc>Created with Sketch.</desc>
    <defs>
        <polygon id="path-1" points="0 48 44.8085106 48 44.8085106 0 0 0"></polygon>
    </defs>
    <g id="Page-1" stroke="none" stroke-width="1" fill="none" fill-rule="evenodd">
        <g id="BENCH-Home-01.2" transform="translate(-852.000000, -310.000000)">
            <rect fill="#FFFFFF" x="0" y="0" width="1440" height="1216"></rect>
            <g id="icon/health/purple" transform="translate(852.000000, 310.000000)">
                <g id="Group-10">
                    <path d="M13.2130532,28.607808 C15.7502872,28.607808 17.8087979,30.670848 17.8087979,33.215808 C17.8087979,35.760768 15.7502872,37.823808 13.2130532,37.823808 C10.6748617,37.823808 8.61635106,35.760768 8.61635106,33.215808 C8.61635106,30.670848 10.6748617,28.607808 13.2130532,28.607808 Z" id="Stroke-1" stroke="#283591" stroke-width="2" stroke-linecap="round" stroke-linejoin="round"></path>
                    <path d="M22.4041596,28.607808 L39.7665,28.607808 C42.0222447,28.607808 43.8509681,30.442368 43.8509681,32.704128 L43.8509681,37.823808 L22.4041596,37.823808 L22.4041596,28.607808 Z" id="Stroke-3" stroke="#283591" stroke-width="2" stroke-linecap="round" stroke-linejoin="round"></path>
                    <mask id="mask-2" fill="white">
                        <use xlink:href="#path-1"></use>
                    </mask>
                    <g id="Clip-6"></g>
                    <polygon id="Stroke-5" stroke="#283591" stroke-width="2" stroke-linecap="round" stroke-linejoin="round" mask="url(#mask-2)" points="0.957446809 43.968 43.8520213 43.968 43.8520213 37.824 0.957446809 37.824"></polygon>
                    <path d="M0.956968085,47.04 L0.956968085,28.608" id="Stroke-7" stroke="#283591" stroke-width="2" stroke-linecap="round" stroke-linejoin="round" mask="url(#mask-2)"></path>
                    <path d="M43.8513511,47.04 L43.8513511,43.968" id="Stroke-8" stroke="#283591" stroke-width="2" stroke-linecap="round" stroke-linejoin="round" mask="url(#mask-2)"></path>
                    <path d="M33.1277553,7.103904 L28.5320106,7.103904 L28.5320106,2.495904 C28.5320106,1.647264 27.8455213,0.959904 27.0000957,0.959904 L20.8724362,0.959904 C20.0260532,0.959904 19.3405213,1.647264 19.3405213,2.495904 L19.3405213,7.103904 L14.7447766,7.103904 C13.8983936,7.103904 13.2128617,7.791264 13.2128617,8.639904 L13.2128617,14.783904 C13.2128617,15.632544 13.8983936,16.319904 14.7447766,16.319904 L19.3405213,16.319904 L19.3405213,20.927904 C19.3405213,21.776544 20.0260532,22.463904 20.8724362,22.463904 L27.0000957,22.463904 C27.8455213,22.463904 28.5320106,21.776544 28.5320106,20.927904 L28.5320106,16.319904 L33.1277553,16.319904 C33.9741383,16.319904 34.6596702,15.632544 34.6596702,14.783904 L34.6596702,8.639904 C34.6596702,7.791264 33.9741383,7.103904 33.1277553,7.103904 Z" id="Stroke-9" stroke="#283591" stroke-width="2" stroke-linecap="round" stroke-linejoin="round" mask="url(#mask-2)"></path>
                </g>
            </g>
        </g>
    </g>
</svg>