<?xml version="1.0" encoding="UTF-8"?>
<svg width="41px" height="50px" viewBox="0 0 41 50" version="1.1" xmlns="http://www.w3.org/2000/svg" xmlns:xlink="http://www.w3.org/1999/xlink">
    <!-- Generator: Sketch 51 (57462) - http://www.bohemiancoding.com/sketch -->
    <title>icon/highvaluehome</title>
    <desc>Created with Sketch.</desc>
    <defs></defs>
    <g id="Page-1" stroke="none" stroke-width="1" fill="none" fill-rule="evenodd">
        <g id="BENCH-Home-01" transform="translate(-1193.000000, -2640.000000)">
            <rect fill="#FFFFFF" x="0" y="0" width="1440" height="6195"></rect>
            <g id="icon/highvaluehome/blue" transform="translate(1194.000000, 2641.000000)" stroke="#283591" stroke-linecap="round" stroke-linejoin="round">
                <g id="Group-17">
                    <path d="M38.4001,44.8001 C38.4001,46.5671 36.9671,48.0001 35.2001,48.0001 L3.2001,48.0001 C1.4331,48.0001 0.0001,46.5671 0.0001,44.8001 L0.0001,19.2001 C0.0001,8.5961 8.5961,0.0001 19.2001,0.0001 C29.8041,0.0001 38.4001,8.5961 38.4001,19.2001 L38.4001,44.8001 Z" id="Stroke-1" stroke-width="2"></path>
                    <path d="M0.0002,19.2 L38.4002,19.2" id="Stroke-3" stroke-width="2"></path>
                    <path d="M0.0002,31.9998 L38.4002,31.9998" id="Stroke-5" stroke-width="2"></path>
                    <path d="M19.1999,19.2 L19.1999,0" id="Stroke-7" stroke-width="2"></path>
                    <path d="M12.8,19.2 L12.8,48" id="Stroke-9" stroke-width="2"></path>
                    <path d="M25.5998,19.2 L25.5998,48" id="Stroke-11" stroke-width="2"></path>
                    <path d="M4.9279,6.3553 L19.1999,19.2003" id="Stroke-13" stroke-width="2"></path>
                    <path d="M33.4719,6.3553 L19.1999,19.2003" id="Stroke-15" stroke-width="2"></path>
                </g>
            </g>
        </g>
    </g>
</svg>