<?xml version="1.0" encoding="UTF-8"?>
<svg width="50px" height="50px" viewBox="0 0 50 50" version="1.1" xmlns="http://www.w3.org/2000/svg" xmlns:xlink="http://www.w3.org/1999/xlink">
    <!-- Generator: Sketch 51 (57462) - http://www.bohemiancoding.com/sketch -->
    <title>icon/foodbev/purple</title>
    <desc>Created with Sketch.</desc>
    <defs></defs>
    <g id="Page-1" stroke="none" stroke-width="1" fill="none" fill-rule="evenodd">
        <g id="BENCH-Home-01.2" transform="translate(-541.000000, -550.000000)">
            <rect fill="#FFFFFF" x="0" y="0" width="1440" height="1216"></rect>
            <g id="icon/foodbev/purple" transform="translate(542.000000, 551.000000)" stroke="#283591" stroke-linecap="round" stroke-linejoin="round">
                <g id="Group-15">
                    <path d="M0,28.8001 L0,48.0001" id="Stroke-1" stroke-width="2"></path>
                    <path d="M32,44.8001 C32,41.2651 29.135,38.4001 25.6,38.4001 L17.6,38.4001 C17.6,34.8651 14.734,32.0001 11.2,32.0001 L0,32.0001 L0,44.8001 L32,44.8001 Z" id="Stroke-3" stroke-width="2"></path>
                    <path d="M11.2002,38.4002 L17.5992,38.4002" id="Stroke-5" stroke-width="2"></path>
                    <path d="M3.2002,22.4002 L48.0002,22.4002" id="Stroke-7" stroke-width="2"></path>
                    <path d="M25.5996,-0.0002 L25.5996,3.1998" id="Stroke-9" stroke-width="2"></path>
                    <path d="M44.7998,22.4002 C44.7998,11.7962 36.2038,3.2002 25.5998,3.2002 C14.9958,3.2002 6.4008,11.7962 6.4008,22.4002 L44.7998,22.4002 Z" id="Stroke-11" stroke-width="2"></path>
                    <path d="M44.7998,22.4002 L43.3678,25.2712 C42.2828,27.4332 40.0718,28.7982 37.6538,28.8002 L22.4008,28.8002" id="Stroke-13" stroke-width="2"></path>
                </g>
            </g>
        </g>
    </g>
</svg>