<?xml version="1.0" encoding="UTF-8"?>
<svg width="50px" height="34px" viewBox="0 0 50 34" version="1.1" xmlns="http://www.w3.org/2000/svg" xmlns:xlink="http://www.w3.org/1999/xlink">
    <!-- Generator: Sketch 51 (57462) - http://www.bohemiancoding.com/sketch -->
    <title>icon/finance/purple</title>
    <desc>Created with Sketch.</desc>
    <defs></defs>
    <g id="Page-1" stroke="none" stroke-width="1" fill="none" fill-rule="evenodd">
        <g id="BENCH-Home-01.2" transform="translate(-541.000000, -810.000000)">
            <rect fill="#FFFFFF" x="0" y="0" width="1440" height="1216"></rect>
            <g id="icon/finance/purple" transform="translate(542.000000, 811.000000)" stroke="#283591" stroke-linecap="round" stroke-linejoin="round">
                <g id="Group-11">
                    <path d="M7.1995,6.4003 C7.6415,6.4003 8.0005,6.7573 8.0005,7.2003 C8.0005,7.6413 7.6415,8.0003 7.1995,8.0003 C6.7585,8.0003 6.3995,7.6413 6.3995,7.2003 C6.3995,6.7573 6.7585,6.4003 7.1995,6.4003" id="Stroke-1" stroke-width="2"></path>
                    <path d="M34.3997,17.5995 C34.8417,17.5995 35.1997,17.9575 35.1997,18.4005 C35.1997,18.8415 34.8417,19.2005 34.3997,19.2005 C33.9587,19.2005 33.5997,18.8415 33.5997,18.4005 C33.5997,17.9575 33.9587,17.5995 34.3997,17.5995" id="Stroke-3" stroke-width="2"></path>
                    <path d="M3.1995,-0.0001 L38.3995,-0.0001 C40.1675,-0.0001 41.5995,1.4329 41.5995,3.1999 L41.5995,22.3999 C41.5995,24.1669 40.1675,25.5999 38.3995,25.5999 L3.1995,25.5999 C1.4325,25.5999 0.0005,24.1669 0.0005,22.3999 L0.0005,3.1999 C0.0005,1.4329 1.4325,-0.0001 3.1995,-0.0001 Z" id="Stroke-5" stroke-width="2"></path>
                    <path d="M20.8001,6.4003 C24.3341,6.4003 27.1991,9.2653 27.1991,12.7993 C27.1991,16.3353 24.3341,19.2003 20.8001,19.2003 C17.2651,19.2003 14.4001,16.3353 14.4001,12.7993 C14.4001,9.2653 17.2651,6.4003 20.8001,6.4003 Z" id="Stroke-7" stroke-width="2"></path>
                    <path d="M48.0003,9.5995 L48.0003,28.7995 C48.0003,30.5675 46.5673,31.9995 44.8003,31.9995 L9.6003,31.9995" id="Stroke-9" stroke-width="2"></path>
                </g>
            </g>
        </g>
    </g>
</svg>