<?xml version="1.0" encoding="UTF-8"?>
<svg width="50px" height="50px" viewBox="0 0 50 50" version="1.1" xmlns="http://www.w3.org/2000/svg" xmlns:xlink="http://www.w3.org/1999/xlink">
    <!-- Generator: Sketch 51 (57462) - http://www.bohemiancoding.com/sketch -->
    <title>icon/rental</title>
    <desc>Created with Sketch.</desc>
    <defs></defs>
    <g id="Page-1" stroke="none" stroke-width="1" fill="none" fill-rule="evenodd">
        <g id="BENCH-Home-01" transform="translate(-695.000000, -2639.000000)">
            <rect fill="#FFFFFF" x="0" y="0" width="1440" height="6195"></rect>
            <g id="icon/rental" transform="translate(696.000000, 2640.000000)" stroke="#283591" stroke-linecap="round" stroke-linejoin="round">
                <g id="Group-9">
                    <path d="M25.8746927,19.7443902 C25.873522,12.8417561 20.2762537,7.248 13.3736195,7.24917073 C6.47098537,7.2515122 0.876058537,12.8476098 0.8784,19.7502439 C0.879570732,25.4493659 4.73479024,30.4249756 10.251278,31.8485854 L10.251278,44.6306341 C10.251278,46.3562927 11.6514732,47.7553171 13.375961,47.7553171 C15.1016195,47.7553171 16.5006439,46.3562927 16.5006439,44.6306341 L16.5006439,31.8485854 C22.0206439,30.4238049 25.8758634,25.4446829 25.8746927,19.7443902 Z" id="Stroke-1" stroke-width="2"></path>
                    <path d="M27.5683902,32.1239415 C29.2003902,31.899161 30.7715122,31.3512585 32.190439,30.5141854 L42.4120976,40.7335024 C43.6530732,41.9323317 45.6316098,41.8972098 46.830439,40.6562341 C48,39.4456976 48,37.5256976 46.830439,36.315161 L36.6017561,26.0958439 C40.1116098,20.1508683 38.1377561,12.4884293 32.1939512,8.97857561 C28.3176585,6.68979512 23.5094634,6.66286829 19.6062439,8.90833171" id="Stroke-3" stroke-width="2"></path>
                    <path d="M13.3761951,15.0574829 C15.1018537,15.0574829 16.500878,16.4565073 16.500878,18.1821659 C16.500878,19.9078244 15.1018537,21.3068488 13.3761951,21.3068488 C11.6505366,21.3068488 10.2515122,19.9078244 10.2515122,18.1821659 C10.2515122,16.4565073 11.6505366,15.0574829 13.3761951,15.0574829 Z" id="Stroke-5" stroke-width="2"></path>
                    <path d="M13.3761951,15.0574829 L13.3761951,5.56519024 C13.3761951,2.97670244 15.4741463,0.87875122 18.0626341,0.87875122 C20.651122,0.87875122 22.7502439,2.97670244 22.7502439,5.56519024 L22.7502439,7.62450732" id="Stroke-7" stroke-width="2"></path>
                </g>
            </g>
        </g>
    </g>
</svg>