<?xml version="1.0" encoding="UTF-8"?>
<svg width="49px" height="49px" viewBox="0 0 49 49" version="1.1" xmlns="http://www.w3.org/2000/svg" xmlns:xlink="http://www.w3.org/1999/xlink">
    <!-- Generator: Sketch 51 (57462) - http://www.bohemiancoding.com/sketch -->
    <title>icon/charity/purple</title>
    <desc>Created with Sketch.</desc>
    <defs></defs>
    <g id="Page-1" stroke="none" stroke-width="1" fill="none" fill-rule="evenodd">
        <g id="BENCH-Home-01.2" transform="translate(-231.000000, -801.000000)">
            <rect fill="#FFFFFF" x="0" y="0" width="1440" height="1216"></rect>
            <g id="icon/charity/purple" transform="translate(232.000000, 802.000000)" stroke="#283591" stroke-linecap="round" stroke-linejoin="round">
                <g id="Group-9">
                    <path d="M0,28.2157714 L0,47.0239347" id="Stroke-1" stroke-width="2"></path>
                    <path d="M0,43.8892408 L31.3333333,43.8892408 C31.3333333,40.4263837 28.5280208,37.6198531 25.0666667,37.6198531 L17.2333333,37.6198531 C17.2333333,34.1569959 14.4270417,31.3504653 10.9666667,31.3504653 L0,31.3504653" id="Stroke-3" stroke-width="2"></path>
                    <path d="M10.9668625,37.6194612 L17.23255,37.6194612" id="Stroke-5" stroke-width="2"></path>
                    <path d="M31.3333333,27.4322939 L17.9804375,13.4966204 C15.5775625,11.0907429 14.98125,7.41629388 16.5009167,4.37368163 C18.4514167,0.469028571 23.1964583,-1.11399184 27.0994167,0.839314286 C27.8582708,1.21841633 28.5515208,1.71800816 29.15175,2.31849796 L31.3333333,4.4971102 L33.5149167,2.31457959 C36.5992917,-0.772114286 41.600875,-0.771134694 44.6872083,2.31457959 C45.2864583,2.91604898 45.7868125,3.6096 46.16575,4.36878367 C47.6863958,7.41237551 47.0900833,11.0868245 44.68525,13.4936816 L31.3333333,27.4322939 Z" id="Stroke-7" stroke-width="2"></path>
                </g>
            </g>
        </g>
    </g>
</svg>